<?xml version="1.0" standalone="no"?><!DOCTYPE svg PUBLIC "-//W3C//DTD SVG 1.1//EN" "http://www.w3.org/Graphics/SVG/1.1/DTD/svg11.dtd"><svg t="1637217675704" class="icon" viewBox="0 0 1328 1024" version="1.1" xmlns="http://www.w3.org/2000/svg" p-id="3143" xmlns:xlink="http://www.w3.org/1999/xlink" width="259.375" height="200"><defs><style type="text/css"></style></defs><path d="M1321.028249 489.486293 1243.978257 385.328493c22.382821-17.369886 44.621668-35.751521 66.702142-55.151449 12.218212-10.735273 13.421054-29.342032 2.68709-41.560243-10.735273-12.218212-29.342032-13.422363-41.561552-2.68709C1120.618167 418.755478 962.612543 501.470218 802.180292 531.779498c-127.782729 24.144547-257.802301 15.33199-386.443642-26.192914C300.427359 468.367831 207.445919 411.204663 149.748736 369.805409c-62.304371-44.705435-98.084687-81.206933-99.066333-82.214755-11.302009-11.695976-29.944108-12.016647-41.641393-0.715947-11.695976 11.302009-12.016647 29.945416-0.715947 41.641393 1.335038 1.382157 29.085495 29.912695 79.014592 68.288481l-69.340805 89.546991c-9.95781 12.859553-7.605788 31.356368 5.255074 41.314178 5.365019 4.155632 11.710374 6.166041 18.00861 6.166041 8.798159 0 17.50339-3.926581 23.305568-11.421116l70.476896-91.015532c51.771972 35.38504 123.726571 77.853633 210.263183 111.581656l-46.723698 100.852927c-6.837487 14.757401-0.416218 32.263408 14.342492 39.100895 4.00773 1.855964 8.215717 2.735518 12.360877 2.735518 11.116151 0 21.759804-6.327031 26.740017-17.07801l49.042998-105.861936c76.339281 24.31339 153.170694 37.891508 229.854205 40.689851l0 112.12745c0 16.265208 13.185459 29.449358 29.449358 29.449358 16.265208 0 29.449358-13.184151 29.449358-29.449358l0-112.09342c40.716028-1.450217 81.344363-5.950079 121.778987-13.512674 43.314116-8.100537 86.4018-19.736306 129.187136-34.858878l51.677734 107.359272c5.071834 10.537635 15.593762 16.682734 26.555468 16.682734 4.282591 0 8.635861-0.938453 12.752227-2.920067 14.654001-7.054757 20.816115-24.653694 13.762667-39.307695l-49.70659-103.262539c67.895823-28.937594 134.938269-66.736173 200.822373-113.239982l77.023815 104.123769c5.776001 7.808661 14.678869 11.936807 23.698226 11.936807 6.084892 0 12.223447-1.879523 17.490301-5.774692C1327.94165 521.002342 1330.700727 502.561808 1321.028249 489.486293z" fill="rgb(226, 226, 226)" p-id="3144"></path></svg>